<svg width="1440" height="1024" viewBox="0 0 1440 1024" fill="none" xmlns="http://www.w3.org/2000/svg">
<g clip-path="url(#clip0_5_2)">
<rect width="1440" height="1024" fill="white"/>
<path d="M1153.27 -22.5066L1521.1 -94.3088L1397.66 261.616L1153.27 -22.5066Z" fill="#D9D9D9"/>
<path d="M1153.27 -22.5066L1521.1 -94.3088L1397.66 261.616L1153.27 -22.5066Z" fill="#FDDD6F" fill-opacity="0.86"/>
<path d="M-118.735 905.493L249.097 833.691L125.662 1189.62L-118.735 905.493Z" fill="#F8DD7E"/>
<path d="M585.265 388.493L953.097 316.691L829.662 672.616L585.265 388.493Z" fill="#2BBBDB"/>
<path d="M-154.735 186.493L213.097 114.691L89.662 470.616L-154.735 186.493Z" fill="#EFBC07"/>
<path d="M1284.72 637.491L1481.22 591.163L1436.67 770.415L1284.72 637.491Z" fill="#F7C104"/>
<path d="M814.265 1004.49L1182.1 932.691L1058.66 1288.62L814.265 1004.49Z" fill="#35B092"/>
<path d="M490.761 -17.3673L607.218 -40.6559L567.794 73.0232L490.761 -17.3673Z" fill="#35B092"/>
<path d="M552.5 909.324L575.919 842.222L623.55 911.02L552.5 909.324Z" fill="#CBE90F"/>
<path d="M215.192 491.942L365.812 456.917L311.786 612.701L215.192 491.942Z" fill="#DBD42B" fill-opacity="0.51"/>
<path d="M1120.26 475.643L1213.3 456.839L1181.68 548.019L1120.26 475.643Z" fill="#DBD42B"/>
<path d="M668.096 764.224C666.56 764.224 665.237 764.064 664.128 763.744C663.04 763.424 662.219 763.061 661.664 762.656C661.131 762.293 660.864 761.931 660.864 761.568C660.864 761.291 660.96 760.96 661.152 760.576C661.365 760.192 661.611 759.861 661.888 759.584C662.165 759.285 662.389 759.136 662.56 759.136C662.645 759.136 662.752 759.168 662.88 759.232C663.008 759.296 663.168 759.381 663.36 759.488C663.787 759.701 664.341 759.947 665.024 760.224C665.728 760.501 666.56 760.64 667.52 760.64C668.117 760.64 668.672 760.555 669.184 760.384C669.717 760.192 670.144 759.893 670.464 759.488C670.784 759.061 670.944 758.528 670.944 757.888C670.944 757.163 670.699 756.587 670.208 756.16C669.739 755.733 669.131 755.36 668.384 755.04C667.637 754.72 666.859 754.379 666.048 754.016C665.451 753.76 664.864 753.472 664.288 753.152C663.733 752.811 663.232 752.405 662.784 751.936C662.336 751.445 661.973 750.859 661.696 750.176C661.44 749.472 661.312 748.629 661.312 747.648C661.312 746.24 661.653 745.077 662.336 744.16C663.04 743.221 663.957 742.528 665.088 742.08C666.219 741.611 667.435 741.376 668.736 741.376C669.376 741.376 670.005 741.429 670.624 741.536C671.243 741.621 671.808 741.76 672.32 741.952C672.832 742.123 673.259 742.325 673.6 742.56C674.048 742.859 674.272 743.179 674.272 743.52C674.272 743.755 674.187 744.064 674.016 744.448C673.867 744.832 673.675 745.173 673.44 745.472C673.205 745.771 672.981 745.92 672.768 745.92C672.661 745.92 672.523 745.877 672.352 745.792C672.203 745.707 671.989 745.611 671.712 745.504C671.413 745.376 671.04 745.259 670.592 745.152C670.165 745.024 669.632 744.96 668.992 744.96C668.181 744.96 667.52 745.077 667.008 745.312C666.517 745.525 666.165 745.813 665.952 746.176C665.739 746.539 665.632 746.944 665.632 747.392C665.632 748.032 665.803 748.555 666.144 748.96C666.485 749.365 666.933 749.707 667.488 749.984C668.064 750.24 668.693 750.496 669.376 750.752C670.037 751.029 670.709 751.339 671.392 751.68C672.096 752 672.736 752.405 673.312 752.896C673.909 753.387 674.379 754.005 674.72 754.752C675.083 755.499 675.264 756.416 675.264 757.504C675.264 758.677 675.072 759.691 674.688 760.544C674.304 761.397 673.771 762.101 673.088 762.656C672.405 763.189 671.637 763.584 670.784 763.84C669.931 764.096 669.035 764.224 668.096 764.224ZM679.936 764.064C678.805 764.064 678.24 763.755 678.24 763.136V748.128C678.24 747.509 678.805 747.2 679.936 747.2H680.576C681.707 747.2 682.272 747.509 682.272 748.128V763.136C682.272 763.755 681.707 764.064 680.576 764.064H679.936ZM680.256 745.408C679.531 745.408 679.008 745.333 678.688 745.184C678.368 745.013 678.208 744.779 678.208 744.48V742.176C678.208 741.877 678.368 741.653 678.688 741.504C679.008 741.355 679.531 741.28 680.256 741.28C680.981 741.28 681.504 741.355 681.824 741.504C682.144 741.653 682.304 741.877 682.304 742.176V744.48C682.304 744.779 682.144 745.013 681.824 745.184C681.504 745.333 680.981 745.408 680.256 745.408ZM692.757 770.784C691.199 770.784 689.877 770.624 688.789 770.304C687.722 770.005 686.911 769.525 686.357 768.864C685.802 768.224 685.525 767.413 685.525 766.432C685.525 765.579 685.781 764.821 686.293 764.16C686.805 763.499 687.509 762.987 688.405 762.624L688.437 762.528C688.01 762.272 687.679 761.931 687.445 761.504C687.21 761.077 687.093 760.587 687.093 760.032C687.093 759.413 687.253 758.859 687.573 758.368C687.914 757.877 688.373 757.451 688.949 757.088C688.117 756.661 687.466 756.075 686.997 755.328C686.549 754.56 686.325 753.643 686.325 752.576C686.325 751.317 686.602 750.283 687.157 749.472C687.733 748.661 688.522 748.053 689.525 747.648C690.549 747.243 691.701 747.04 692.981 747.04C693.386 747.04 693.781 747.061 694.165 747.104C694.549 747.125 694.911 747.179 695.253 747.264H700.629C701.205 747.264 701.493 747.723 701.493 748.64V749.12C701.493 749.995 701.247 750.432 700.757 750.432C700.586 750.432 700.287 750.411 699.861 750.368C699.455 750.304 699.135 750.24 698.901 750.176L698.869 750.272C699.125 750.592 699.317 750.955 699.445 751.36C699.594 751.744 699.669 752.149 699.669 752.576C699.669 753.749 699.391 754.731 698.837 755.52C698.303 756.309 697.546 756.907 696.565 757.312C695.605 757.717 694.485 757.92 693.205 757.92C692.245 757.92 691.594 758.037 691.253 758.272C690.911 758.485 690.741 758.816 690.741 759.264C690.741 759.733 690.986 760.075 691.477 760.288C691.967 760.501 692.586 760.651 693.333 760.736C694.101 760.821 694.911 760.928 695.765 761.056C696.639 761.205 697.461 761.44 698.229 761.76C698.997 762.059 699.615 762.507 700.085 763.104C700.554 763.701 700.789 764.523 700.789 765.568C700.789 766.635 700.469 767.552 699.829 768.32C699.189 769.109 698.261 769.717 697.045 770.144C695.85 770.571 694.421 770.784 692.757 770.784ZM693.109 767.584C694.389 767.584 695.338 767.413 695.957 767.072C696.575 766.752 696.885 766.293 696.885 765.696C696.885 765.312 696.735 765.013 696.437 764.8C696.159 764.587 695.765 764.416 695.253 764.288C694.741 764.181 694.133 764.085 693.429 764C692.746 763.915 691.999 763.819 691.189 763.712C690.655 763.925 690.218 764.203 689.877 764.544C689.557 764.907 689.397 765.312 689.397 765.76C689.397 766.357 689.685 766.805 690.261 767.104C690.858 767.424 691.807 767.584 693.109 767.584ZM692.981 754.912C693.77 754.912 694.442 754.731 694.997 754.368C695.551 754.005 695.829 753.376 695.829 752.48C695.829 751.605 695.551 750.987 694.997 750.624C694.442 750.24 693.77 750.048 692.981 750.048C692.191 750.048 691.519 750.24 690.965 750.624C690.41 750.987 690.133 751.605 690.133 752.48C690.133 753.376 690.41 754.005 690.965 754.368C691.519 754.731 692.191 754.912 692.981 754.912ZM705.874 764.064C704.743 764.064 704.178 763.755 704.178 763.136V752.64C704.178 751.637 704.146 750.848 704.082 750.272C704.018 749.696 703.954 749.259 703.89 748.96C703.826 748.661 703.794 748.437 703.794 748.288C703.794 748.117 703.911 747.979 704.146 747.872C704.38 747.744 704.668 747.648 705.01 747.584C705.351 747.499 705.682 747.445 706.002 747.424C706.343 747.381 706.588 747.36 706.738 747.36C707.058 747.36 707.292 747.477 707.442 747.712C707.591 747.947 707.698 748.224 707.762 748.544C707.847 748.864 707.922 749.163 707.986 749.44C708.519 748.779 709.202 748.213 710.034 747.744C710.887 747.275 711.815 747.04 712.818 747.04C714.439 747.04 715.655 747.477 716.466 748.352C717.276 749.205 717.682 750.496 717.682 752.224V763.136C717.682 763.755 717.116 764.064 715.986 764.064H715.378C714.247 764.064 713.682 763.755 713.682 763.136V752.768C713.682 752.021 713.49 751.445 713.106 751.04C712.722 750.613 712.114 750.4 711.282 750.4C710.599 750.4 709.991 750.613 709.458 751.04C708.946 751.467 708.53 751.915 708.21 752.384V763.136C708.21 763.755 707.644 764.064 706.514 764.064H705.874ZM726.694 764.224C725.094 764.224 723.878 763.797 723.046 762.944C722.235 762.069 721.83 760.768 721.83 759.04V748.128C721.83 747.509 722.395 747.2 723.526 747.2H724.134C725.265 747.2 725.83 747.509 725.83 748.128V758.496C725.83 759.243 726.022 759.829 726.406 760.256C726.79 760.661 727.398 760.864 728.23 760.864C728.913 760.864 729.51 760.651 730.022 760.224C730.555 759.797 730.982 759.349 731.302 758.88V748.128C731.302 747.509 731.867 747.2 732.998 747.2H733.638C734.769 747.2 735.334 747.509 735.334 748.128V758.688C735.334 759.712 735.366 760.523 735.43 761.12C735.494 761.696 735.558 762.133 735.622 762.432C735.686 762.709 735.718 762.933 735.718 763.104C735.718 763.275 735.601 763.424 735.366 763.552C735.131 763.659 734.843 763.755 734.502 763.84C734.161 763.904 733.819 763.957 733.478 764C733.158 764.021 732.923 764.032 732.774 764.032C732.454 764.032 732.219 763.915 732.07 763.68C731.921 763.424 731.803 763.125 731.718 762.784C731.654 762.421 731.59 762.101 731.526 761.824C730.993 762.464 730.299 763.029 729.446 763.52C728.614 763.989 727.697 764.224 726.694 764.224ZM741.691 770.624C740.56 770.624 739.995 770.315 739.995 769.696V752.64C739.995 751.637 739.963 750.848 739.899 750.272C739.835 749.696 739.771 749.259 739.707 748.96C739.643 748.661 739.611 748.437 739.611 748.288C739.611 748.117 739.728 747.979 739.963 747.872C740.197 747.744 740.475 747.648 740.795 747.584C741.136 747.499 741.467 747.445 741.786 747.424C742.128 747.381 742.373 747.36 742.523 747.36C742.843 747.36 743.077 747.477 743.227 747.712C743.376 747.947 743.483 748.224 743.547 748.544C743.632 748.864 743.707 749.163 743.771 749.44C744.283 748.715 744.923 748.139 745.691 747.712C746.48 747.264 747.355 747.04 748.315 747.04C749.531 747.04 750.597 747.381 751.515 748.064C752.432 748.747 753.136 749.739 753.627 751.04C754.139 752.32 754.395 753.856 754.395 755.648C754.395 758.315 753.797 760.416 752.603 761.952C751.408 763.467 749.787 764.224 747.739 764.224C746.907 764.224 746.181 764.107 745.562 763.872C744.965 763.616 744.443 763.328 743.995 763.008V769.696C743.995 770.315 743.429 770.624 742.299 770.624H741.691ZM746.843 760.96C747.995 760.96 748.848 760.512 749.403 759.616C749.979 758.72 750.267 757.419 750.267 755.712C750.267 753.984 750.011 752.661 749.499 751.744C748.987 750.827 748.229 750.368 747.227 750.368C746.587 750.368 745.989 750.56 745.435 750.944C744.901 751.328 744.421 751.808 743.995 752.384V760.064C744.379 760.32 744.805 760.533 745.275 760.704C745.744 760.875 746.267 760.96 746.843 760.96Z" fill="white"/>
</g>
<defs>
<clipPath id="clip0_5_2">
<rect width="1440" height="1024" fill="white"/>
</clipPath>
</defs>
</svg>
